<?xml version="1.0" encoding="UTF-8"?>
<svg class="block h-9 w-auto fill-current text-gray-800" width="512" height="512" version="1.1" viewBox="0 0 512 512" xmlns="http://www.w3.org/2000/svg">
 <!--! Font Awesome Free 6.4.2 by @fontawesome - https://fontawesome.com License - https://fontawesome.com/license (Commercial License) Copyright 2023 Fonticons, Inc. -->
 <path d="m37.369 8.3837c-19.563 0-35.369 15.808-35.369 35.374 0 19.566 15.805 35.374 35.369 35.374v318.36c0 60.953 50.68 106.12 106.11 106.12 55.263 0 106.11-44.687 106.11-106.12v-40.732l-87.951-61.667 87.951 0.18784v-216.15c19.563 0 35.369-15.808 35.369-35.374 0-19.566-15.805-35.374-35.369-35.374h-141.47zm70.737 70.748h70.737v106.12h-70.737z" image-rendering="auto" stroke-width="1.1054"/>
 <path d="m316.74 307.2c-37.088-0.0442-37.124-0.0513-52.745-0.11285-22.25-0.0472-44.5-0.0946-66.751-0.14174 32.525 22.803 65.049 45.607 97.574 68.409-12.489 36.985-24.976 73.97-37.464 110.96 32.423-22.942 64.846-45.884 97.268-68.827 32.421 22.943 64.844 45.885 97.265 68.827-12.488-36.985-24.975-73.971-37.464-110.96 32.525-22.802 65.049-45.606 97.574-68.409-40.138 0.0854-80.276 0.16789-120.41 0.25464-12.322-37.032-24.641-74.065-36.961-111.1-15.141 44.683-15.231 44.88-37.882 111.1z" stroke-width="6.7496"/>
</svg>
