<?xml version="1.0" encoding="UTF-8" standalone="no"?>
<svg
   class="block h-9 w-auto fill-current text-gray-800"
   width="512"
   height="512"
   version="1.1"
   viewBox="0 0 512 512"
   id="svg2"
   sodipodi:docname="logo-veteran-army-round - blue.svg"
   inkscape:version="1.3 (0e150ed6c4, 2023-07-21)"
   xmlns:inkscape="http://www.inkscape.org/namespaces/inkscape"
   xmlns:sodipodi="http://sodipodi.sourceforge.net/DTD/sodipodi-0.dtd"
   xmlns="http://www.w3.org/2000/svg"
   xmlns:svg="http://www.w3.org/2000/svg">
  <defs
     id="defs2" />
  <sodipodi:namedview
     id="namedview2"
     pagecolor="#ffffff"
     bordercolor="#111111"
     borderopacity="1"
     inkscape:showpageshadow="0"
     inkscape:pageopacity="0"
     inkscape:pagecheckerboard="1"
     inkscape:deskcolor="#d1d1d1"
     inkscape:zoom="1.5878906"
     inkscape:cx="255.68512"
     inkscape:cy="256"
     inkscape:window-width="1920"
     inkscape:window-height="1009"
     inkscape:window-x="1912"
     inkscape:window-y="-8"
     inkscape:window-maximized="1"
     inkscape:current-layer="svg2" />
  <!--! Font Awesome Free 6.4.2 by @fontawesome - https://fontawesome.com License - https://fontawesome.com/license (Commercial License) Copyright 2023 Fonticons, Inc. -->
  <path
     d="m103.9 18.379-67.93 0.0045c-18.788 3e-6 -33.967 15.183-33.967 33.974s15.18 33.97 33.967 33.97v305.75c0 58.538 48.672 101.92 101.9 101.92 30.488 0 59.52-14.21 78.755-37.448 7.1415-16.711 14.935-33.148 22.093-49.824 0.67605-4.7589 1.0544-9.6399 1.0544-14.647v-16.76c-15.29-10.056-31.384-18.804-47.238-27.922-10.491-6.0703-21.004-12.127-31.121-18.808-6.9577-4.7252-13.909-9.6019-19.734-15.717-3.8106-4.0304-6.8997-8.9353-7.9585-14.442-1.1727-5.8346 0.34037-12.155 4.1321-16.758 3.5286-4.3544 8.6587-7.1993 14.064-8.498 8.6108-2.1628 17.574-2.1744 26.391-1.839 20.568 0.84987 41.012 3.5131 61.465 5.7126v-190.72c18.788 0 33.967-15.181 33.967-33.972s-15.18-33.972-33.967-33.972zm2e-3 67.948h67.937v101.92h-67.937z"
     id="path1"
     style="fill:#0284c7;fill-opacity:1" />
  <path
     d="m334.75 168.12c26.898 0 19.519 112.19 41.279 128 21.761 15.811 126.18-25.875 134.49-0.294 8.312 25.583-100.67 53.233-108.98 78.814-8.312 25.582 63.601 112.01 41.838 127.82-21.762 15.812-81.733-79.289-108.63-79.289s-86.872 95.101-108.63 79.289c-21.761-15.811 50.152-102.24 41.839-127.82-8.312-25.583-117.29-53.233-108.98-78.814 8.312-25.582 112.73 16.105 134.49 0.294 21.761-15.81 14.382-128 41.279-128z"
     id="path2"
     style="fill:#0284c7;fill-opacity:1" />
</svg>
